<svg width="225" height="214" viewBox="0 0 225 214" fill="none" xmlns="http://www.w3.org/2000/svg">
<ellipse cx="112.033" cy="107" rx="112.033" ry="107" fill="#EC0000"/>
<path fill-rule="evenodd" clip-rule="evenodd" d="M32.6432 52.9679L30.7704 49.4453C30.7597 49.4251 30.753 49.4029 30.7508 49.3801C30.7486 49.3573 30.7509 49.3343 30.7576 49.3123C30.7712 49.2681 30.8017 49.231 30.8426 49.2093C30.8835 49.1875 30.9313 49.1829 30.9755 49.1965C30.9975 49.2032 31.0178 49.2141 31.0355 49.2287C31.0532 49.2433 31.0678 49.2612 31.0786 49.2814L32.9516 52.804L33.2172 52.6627C33.2981 52.6196 33.3868 52.5929 33.478 52.5842C33.5693 52.5754 33.6614 52.5847 33.749 52.6115C33.8367 52.6383 33.9182 52.6821 33.989 52.7405C34.0597 52.7988 34.1182 52.8705 34.1613 52.9515L34.2743 53.164L35.473 54.9187L32.9865 56.2407L32.2021 54.2657L32.0892 54.0531C32.0461 53.9722 32.0194 53.8836 32.0107 53.7923C32.0019 53.701 32.0111 53.609 32.0379 53.5213C32.0647 53.4336 32.1086 53.3521 32.1669 53.2814C32.2252 53.2106 32.2969 53.1521 32.3778 53.109L32.6432 52.9679ZM32.5415 53.4172L33.3809 52.971C33.4213 52.9495 33.4656 52.9361 33.5113 52.9318C33.5569 52.9274 33.6029 52.932 33.6468 52.9454C33.6906 52.9588 33.7314 52.9807 33.7667 53.0099C33.8021 53.039 33.8314 53.0748 33.8529 53.1153L33.966 53.3277L32.5101 54.1018L32.3972 53.8893C32.3756 53.8488 32.3623 53.8045 32.3579 53.7588C32.3535 53.7132 32.3582 53.6672 32.3716 53.6233C32.385 53.5795 32.4069 53.5387 32.436 53.5034C32.4652 53.468 32.501 53.4387 32.5415 53.4172ZM32.6863 54.5396L33.1667 55.7495L33.4868 55.5793L33.109 54.8438L33.4196 54.6843L33.7951 55.4155L34.9647 54.7935L34.2304 53.7186L32.6863 54.5396Z" fill="black"/>
<path d="M31.6484 54.6481C31.666 54.6334 31.6864 54.6224 31.7083 54.6155C31.7301 54.6087 31.7531 54.6063 31.776 54.6084C31.7988 54.6105 31.821 54.617 31.8413 54.6277C31.8616 54.6383 31.8796 54.6529 31.8942 54.6705C31.9089 54.6881 31.9199 54.7084 31.9268 54.7303C31.9336 54.7522 31.936 54.7752 31.9339 54.798C31.9318 54.8209 31.9253 54.8431 31.9146 54.8633C31.904 54.8836 31.8894 54.9016 31.8718 54.9163L31.8716 54.9165L31.8713 54.9168L31.8708 54.9172L31.869 54.9186L31.8638 54.9229L31.8458 54.9367C31.8306 54.9483 31.8092 54.9635 31.7818 54.9821C31.7268 55.0187 31.6474 55.0665 31.5472 55.1144C31.2868 55.2393 31.0019 55.3047 30.7131 55.3058C30.6668 55.3058 30.6224 55.2874 30.5897 55.2547C30.557 55.222 30.5386 55.1776 30.5386 55.1313C30.5386 55.085 30.557 55.0406 30.5897 55.0079C30.6224 54.9752 30.6668 54.9568 30.7131 54.9568C30.95 54.9556 31.1836 54.9018 31.3971 54.7992C31.4632 54.7678 31.527 54.7318 31.5881 54.6915C31.6081 54.6783 31.6277 54.6643 31.6469 54.6497L31.6486 54.6479L31.6484 54.6481ZM32.206 55.8C32.2445 55.7743 32.2712 55.7344 32.2803 55.689C32.2893 55.6436 32.28 55.5965 32.2543 55.558C32.2286 55.5194 32.1887 55.4927 32.1433 55.4837C32.0979 55.4746 32.0508 55.4839 32.0123 55.5096L32.0119 55.51L32.0084 55.5121L31.9934 55.5217C31.9796 55.5304 31.9593 55.5424 31.9325 55.5578C31.8606 55.5989 31.7866 55.6362 31.7109 55.6698C31.5245 55.7527 31.2888 55.8293 31.0621 55.8293C31.0158 55.8293 30.9714 55.8477 30.9387 55.8804C30.906 55.9131 30.8876 55.9575 30.8876 56.0038C30.8876 56.0501 30.906 56.0945 30.9387 56.1272C30.9714 56.1599 31.0158 56.1783 31.0621 56.1783C31.3591 56.1783 31.6467 56.0804 31.8528 55.9888C31.9648 55.9391 32.0734 55.882 32.1779 55.818L32.1978 55.8054L32.2034 55.8017L32.2051 55.8007L32.206 55.8Z" fill="black"/>
<path d="M114.576 29.724L46.0691 162.285" stroke="white" stroke-width="20" stroke-linecap="round"/>
<path d="M114.126 29.1498L176.117 163.692" stroke="white" stroke-width="20" stroke-linecap="round"/>
<path d="M48.1636 163.009L69.899 147.97C76.954 143.089 84.9887 139.805 93.443 138.347L103.965 136.533C111.713 135.196 119.647 135.371 127.33 137.046L133.392 138.369C140.021 139.814 146.286 142.594 151.807 146.539L174.855 163.009" stroke="white" stroke-width="20" stroke-linecap="round"/>
<rect x="99.4683" y="109.009" width="29.1076" height="46" fill="#EC0000"/>
<path d="M114.126 122.009V163.009" stroke="white" stroke-width="20" stroke-linecap="round"/>
<path d="M114.126 94.0093V94.3309" stroke="white" stroke-width="23" stroke-linecap="round"/>
<path d="M163.928 42.0137H164.841V39.4631C164.841 39.3375 164.796 39.23 164.707 39.1406C164.618 39.0515 164.51 39.007 164.384 39.007C164.258 39.007 164.151 39.0515 164.062 39.1406C163.973 39.23 163.928 39.3375 163.928 39.4631V42.0137ZM161.901 43.2757H166.868V42.5777C166.868 42.5149 166.847 42.4634 166.807 42.4231C166.767 42.3828 166.716 42.3627 166.653 42.3627H162.116C162.053 42.3627 162.002 42.3828 161.962 42.4231C161.921 42.4634 161.901 42.5149 161.901 42.5777V43.2757ZM161.623 45.3698H162.532V44.4973C162.532 44.4477 162.549 44.4062 162.582 44.3727C162.616 44.3392 162.657 44.3225 162.707 44.3228C162.756 44.323 162.798 44.3396 162.831 44.3727C162.864 44.4057 162.881 44.4472 162.881 44.4973V45.3698H164.21V44.4973C164.21 44.4477 164.227 44.4062 164.26 44.3727C164.294 44.3392 164.335 44.3225 164.385 44.3228C164.434 44.323 164.476 44.3396 164.509 44.3727C164.542 44.4057 164.559 44.4472 164.559 44.4973V45.3698H165.888V44.4973C165.888 44.4477 165.905 44.4062 165.938 44.3727C165.971 44.3394 166.013 44.3228 166.062 44.3228C166.112 44.3228 166.153 44.3394 166.187 44.3727C166.22 44.406 166.237 44.4475 166.237 44.4973V45.3698H167.145C167.217 45.3698 167.275 45.3418 167.32 45.2857C167.365 45.2296 167.376 45.1681 167.354 45.1011L166.924 43.6247H161.845L161.415 45.1011C161.393 45.1683 161.404 45.2299 161.448 45.2857C161.493 45.3415 161.551 45.3695 161.623 45.3695M167.199 45.7185H161.57C161.401 45.7185 161.262 45.6508 161.154 45.5153C161.046 45.3797 161.016 45.2282 161.066 45.0609L161.552 43.3895V42.5372C161.552 42.3899 161.603 42.2659 161.703 42.1652C161.804 42.0642 161.928 42.0137 162.076 42.0137H163.579V39.4631C163.579 39.2395 163.657 39.0494 163.814 38.8928C163.971 38.7363 164.161 38.658 164.384 38.658C164.608 38.658 164.798 38.7363 164.955 38.8928C165.112 39.0494 165.19 39.2395 165.19 39.4631V42.0137H166.693C166.84 42.0137 166.964 42.0642 167.065 42.1652C167.166 42.2659 167.217 42.3899 167.217 42.5372V43.3895L167.703 45.0742C167.757 45.2371 167.729 45.3852 167.62 45.5185C167.511 45.6518 167.371 45.7185 167.199 45.7185Z" fill="black"/>
<path d="M58.1774 73.0137H59.0904V70.4631C59.0904 70.3375 59.0457 70.23 58.9564 70.1406C58.8673 70.0515 58.7598 70.007 58.6339 70.007C58.508 70.007 58.4005 70.0515 58.3114 70.1406C58.222 70.23 58.1774 70.3375 58.1774 70.4631V73.0137ZM56.1507 74.2757H61.1171V73.5777C61.1171 73.5149 61.097 73.4633 61.0567 73.4231C61.0165 73.3828 60.965 73.3627 60.9025 73.3627H56.3653C56.3025 73.3627 56.2511 73.3828 56.211 73.4231C56.1708 73.4633 56.1507 73.5149 56.1507 73.5777V74.2757ZM55.8728 76.3698H56.7813V75.4973C56.7813 75.4477 56.7981 75.4062 56.8316 75.3727C56.8651 75.3392 56.9066 75.3225 56.9562 75.3228C57.0057 75.323 57.0472 75.3396 57.0804 75.3727C57.1137 75.4057 57.1303 75.4472 57.1303 75.4973V76.3698H58.4594V75.4973C58.4594 75.4477 58.4761 75.4062 58.5096 75.3727C58.5431 75.3392 58.5847 75.3225 58.6342 75.3228C58.6838 75.323 58.7252 75.3396 58.7585 75.3727C58.7917 75.4057 58.8084 75.4472 58.8084 75.4973V76.3698H60.1374V75.4973C60.1374 75.4477 60.1542 75.4062 60.1877 75.3727C60.221 75.3394 60.2624 75.3228 60.3119 75.3228C60.3615 75.3228 60.4029 75.3394 60.4362 75.3727C60.4694 75.4059 60.4862 75.4475 60.4864 75.4973V76.3698H61.3949C61.4666 76.3698 61.5247 76.3418 61.5694 76.2857C61.6141 76.2296 61.6254 76.1681 61.6033 76.1011L61.1736 74.6247H56.0941L55.6648 76.1011C55.6423 76.1683 55.6533 76.2298 55.698 76.2857C55.7427 76.3415 55.8008 76.3695 55.8725 76.3695M61.449 76.7185H55.8191C55.6502 76.7185 55.5117 76.6508 55.4038 76.5153C55.2954 76.3797 55.2658 76.2282 55.3151 76.0609L55.8016 74.3895V73.5372C55.8016 73.3899 55.852 73.2659 55.9528 73.1652C56.0538 73.0642 56.1779 73.0137 56.3252 73.0137H57.8284V70.4631C57.8284 70.2395 57.9068 70.0494 58.0636 69.8928C58.2202 69.7363 58.4103 69.658 58.6339 69.658C58.8575 69.658 59.0477 69.7363 59.2045 69.8928C59.3613 70.0494 59.4396 70.2395 59.4394 70.4631V73.0137H60.9426C61.0899 73.0137 61.214 73.0642 61.315 73.1652C61.4157 73.2659 61.4661 73.3899 61.4661 73.5372V74.3895L61.9526 76.0742C62.0061 76.2371 61.9783 76.3852 61.8692 76.5185C61.7601 76.6518 61.6203 76.7185 61.449 76.7185Z" fill="black"/>
<path d="M209.997 114.014H210.91V111.463C210.91 111.337 210.866 111.23 210.776 111.141C210.687 111.052 210.58 111.007 210.454 111.007C210.328 111.007 210.22 111.052 210.131 111.141C210.042 111.23 209.997 111.337 209.997 111.463V114.014ZM207.97 115.276H212.937V114.578C212.937 114.515 212.917 114.463 212.877 114.423C212.836 114.383 212.785 114.363 212.722 114.363H208.185C208.122 114.363 208.071 114.383 208.031 114.423C207.991 114.463 207.97 114.515 207.97 114.578V115.276ZM207.693 117.37H208.601V116.497C208.601 116.448 208.618 116.406 208.651 116.373C208.685 116.339 208.726 116.323 208.776 116.323C208.826 116.323 208.867 116.34 208.9 116.373C208.934 116.406 208.95 116.447 208.95 116.497V117.37H210.279V116.497C210.279 116.448 210.296 116.406 210.329 116.373C210.363 116.339 210.404 116.323 210.454 116.323C210.504 116.323 210.545 116.34 210.578 116.373C210.612 116.406 210.628 116.447 210.628 116.497V117.37H211.957V116.497C211.957 116.448 211.974 116.406 212.007 116.373C212.041 116.339 212.082 116.323 212.132 116.323C212.181 116.323 212.223 116.339 212.256 116.373C212.289 116.406 212.306 116.447 212.306 116.497V117.37H213.215C213.286 117.37 213.345 117.342 213.389 117.286C213.434 117.23 213.445 117.168 213.423 117.101L212.993 115.625H207.914L207.485 117.101C207.462 117.168 207.473 117.23 207.518 117.286C207.562 117.342 207.621 117.369 207.692 117.369M213.269 117.718H207.639C207.47 117.718 207.332 117.651 207.224 117.515C207.115 117.38 207.086 117.228 207.135 117.061L207.621 115.39V114.537C207.621 114.39 207.672 114.266 207.773 114.165C207.874 114.064 207.998 114.014 208.145 114.014H209.648V111.463C209.648 111.24 209.727 111.049 209.883 110.893C210.04 110.736 210.23 110.658 210.454 110.658C210.677 110.658 210.868 110.736 211.024 110.893C211.181 111.049 211.259 111.24 211.259 111.463V114.014H212.762C212.91 114.014 213.034 114.064 213.135 114.165C213.236 114.266 213.286 114.39 213.286 114.537V115.39L213.772 117.074C213.826 117.237 213.798 117.385 213.689 117.518C213.58 117.652 213.44 117.718 213.269 117.718Z" fill="black"/>
<path d="M146.847 24.5522C146.899 24.5522 146.949 24.5315 146.985 24.4947C147.022 24.4579 147.043 24.4079 147.043 24.3559C147.042 23.8874 146.856 23.4383 146.525 23.1071C146.194 22.7758 145.744 22.5895 145.276 22.589H142.92C142.799 22.589 142.682 22.6373 142.596 22.7232C142.51 22.8091 142.462 22.9256 142.462 23.0471V24.6176C142.462 24.7293 142.44 24.84 142.397 24.9432C142.355 25.0464 142.292 25.1402 142.213 25.2192C142.134 25.2982 142.04 25.3608 141.937 25.4036C141.834 25.4463 141.723 25.4683 141.611 25.4683C141.559 25.4683 141.509 25.489 141.473 25.5258C141.436 25.5627 141.415 25.6126 141.415 25.6647C141.415 25.7167 141.436 25.7667 141.473 25.8035C141.509 25.8403 141.559 25.861 141.611 25.861C141.941 25.861 142.257 25.73 142.491 25.4968C142.724 25.2636 142.855 24.9474 142.855 24.6176V24.5522H144.033V25.4232C144.033 25.5508 144.004 25.6768 143.949 25.7919C143.894 25.9069 143.813 26.0079 143.713 26.0874L143.19 26.5059C143.044 26.6221 142.926 26.7698 142.846 26.9379C142.765 27.106 142.723 27.2902 142.724 27.4767V29.3293C142.724 29.4508 142.772 29.5673 142.858 29.6532C142.944 29.7391 143.06 29.7874 143.182 29.7874H146.585C146.706 29.7874 146.823 29.7391 146.909 29.6532C146.995 29.5673 147.043 29.4508 147.043 29.3293V28.9193C147.043 27.3875 146.644 25.8822 145.884 24.5522H146.847ZM142.855 23.0471C142.855 23.0297 142.862 23.0131 142.874 23.0008C142.886 22.9885 142.903 22.9816 142.92 22.9816H145.276C145.606 22.982 145.926 23.1012 146.175 23.3175C146.425 23.5338 146.589 23.8326 146.636 24.1595H142.855V23.0471ZM146.65 28.9193V29.3293C146.65 29.3466 146.643 29.3633 146.631 29.3756C146.619 29.3878 146.602 29.3947 146.585 29.3947H143.182C143.165 29.3947 143.148 29.3878 143.136 29.3756C143.123 29.3633 143.116 29.3466 143.116 29.3293V27.4767C143.116 27.3491 143.145 27.223 143.2 27.108C143.255 26.993 143.336 26.8919 143.436 26.8125L143.959 26.394C144.105 26.2777 144.223 26.13 144.303 25.9619C144.384 25.7938 144.426 25.6097 144.425 25.4232V24.5522H145.428C146.228 25.8684 146.651 27.3791 146.65 28.9193Z" fill="black"/>
<g opacity="0.8">
<path d="M190.822 50.5522C190.874 50.5522 190.924 50.5315 190.961 50.4947C190.998 50.4579 191.018 50.4079 191.018 50.3559C191.018 49.8874 190.832 49.4383 190.5 49.1071C190.169 48.7758 189.72 48.5895 189.252 48.589H186.896C186.774 48.589 186.658 48.6373 186.572 48.7232C186.486 48.8091 186.438 48.9256 186.438 49.0471V50.6176C186.438 50.7293 186.416 50.84 186.373 50.9432C186.33 51.0464 186.267 51.1402 186.188 51.2192C186.109 51.2982 186.016 51.3608 185.912 51.4036C185.809 51.4463 185.699 51.4683 185.587 51.4683C185.535 51.4683 185.485 51.489 185.448 51.5258C185.411 51.5627 185.391 51.6126 185.391 51.6647C185.391 51.7167 185.411 51.7667 185.448 51.8035C185.485 51.8403 185.535 51.861 185.587 51.861C185.917 51.861 186.233 51.73 186.466 51.4968C186.699 51.2636 186.83 50.9474 186.83 50.6176V50.5522H188.008V51.4232C188.009 51.5508 187.98 51.6768 187.925 51.7919C187.869 51.9069 187.789 52.0079 187.689 52.0874L187.165 52.5059C187.02 52.6221 186.902 52.7698 186.821 52.9379C186.741 53.106 186.699 53.2902 186.699 53.4767V55.3293C186.699 55.4508 186.748 55.5673 186.834 55.6532C186.919 55.7391 187.036 55.7874 187.157 55.7874H190.56C190.682 55.7874 190.798 55.7391 190.884 55.6532C190.97 55.5673 191.018 55.4508 191.018 55.3293V54.9193C191.019 53.3875 190.619 51.8822 189.859 50.5522H190.822ZM186.83 49.0471C186.83 49.0297 186.837 49.0131 186.849 49.0008C186.862 48.9885 186.878 48.9816 186.896 48.9816H189.252C189.582 48.982 189.901 49.1012 190.151 49.3175C190.401 49.5338 190.564 49.8326 190.612 50.1595H186.83V49.0471ZM190.626 54.9193V55.3293C190.626 55.3466 190.619 55.3633 190.607 55.3756C190.594 55.3878 190.578 55.3947 190.56 55.3947H187.157C187.14 55.3947 187.123 55.3878 187.111 55.3756C187.099 55.3633 187.092 55.3466 187.092 55.3293V53.4767C187.092 53.3491 187.12 53.223 187.176 53.108C187.231 52.993 187.312 52.8919 187.411 52.8125L187.935 52.394C188.081 52.2777 188.198 52.13 188.279 51.9619C188.36 51.7938 188.401 51.6097 188.401 51.4232V50.5522H189.403C190.203 51.8684 190.626 53.3791 190.626 54.9193Z" fill="black"/>
</g>
<path fill-rule="evenodd" clip-rule="evenodd" d="M152.528 178.468L150.656 174.945C150.645 174.925 150.638 174.903 150.636 174.88C150.634 174.857 150.636 174.834 150.643 174.812C150.656 174.768 150.687 174.731 150.728 174.709C150.769 174.688 150.817 174.683 150.861 174.696C150.883 174.703 150.903 174.714 150.921 174.729C150.938 174.743 150.953 174.761 150.964 174.781L152.837 178.304L153.102 178.163C153.183 178.12 153.272 178.093 153.363 178.084C153.455 178.075 153.547 178.085 153.634 178.112C153.722 178.138 153.803 178.182 153.874 178.24C153.945 178.299 154.003 178.371 154.047 178.451L154.16 178.664L155.358 180.419L152.872 181.741L152.087 179.766L151.974 179.553C151.931 179.472 151.905 179.384 151.896 179.292C151.887 179.201 151.896 179.109 151.923 179.021C151.95 178.934 151.994 178.852 152.052 178.781C152.11 178.711 152.182 178.652 152.263 178.609L152.528 178.468ZM152.427 178.917L153.266 178.471C153.307 178.449 153.351 178.436 153.397 178.432C153.442 178.427 153.488 178.432 153.532 178.445C153.576 178.459 153.617 178.481 153.652 178.51C153.687 178.539 153.717 178.575 153.738 178.615L153.851 178.828L152.395 179.602L152.282 179.389C152.261 179.349 152.248 179.304 152.243 179.259C152.239 179.213 152.243 179.167 152.257 179.123C152.27 179.08 152.292 179.039 152.321 179.003C152.35 178.968 152.386 178.939 152.427 178.917ZM152.572 180.04L153.052 181.249L153.372 181.079L152.994 180.344L153.305 180.184L153.68 180.915L154.85 180.294L154.116 179.219L152.572 180.04Z" fill="black"/>
<path d="M151.534 180.148C151.551 180.133 151.572 180.122 151.594 180.116C151.615 180.109 151.638 180.106 151.661 180.108C151.684 180.11 151.706 180.117 151.727 180.128C151.747 180.138 151.765 180.153 151.779 180.171C151.794 180.188 151.805 180.208 151.812 180.23C151.819 180.252 151.821 180.275 151.819 180.298C151.817 180.321 151.811 180.343 151.8 180.363C151.789 180.384 151.775 180.402 151.757 180.416L151.757 180.416L151.757 180.417L151.756 180.417L151.754 180.419L151.749 180.423L151.731 180.437C151.716 180.448 151.694 180.463 151.667 180.482C151.612 180.519 151.533 180.567 151.432 180.614C151.172 180.739 150.887 180.805 150.598 180.806C150.552 180.806 150.508 180.787 150.475 180.755C150.442 180.722 150.424 180.678 150.424 180.631C150.424 180.585 150.442 180.541 150.475 180.508C150.508 180.475 150.552 180.457 150.598 180.457C150.835 180.456 151.069 180.402 151.282 180.299C151.348 180.268 151.412 180.232 151.473 180.192C151.493 180.178 151.513 180.164 151.532 180.15L151.534 180.148L151.534 180.148ZM152.091 181.3C152.13 181.274 152.156 181.234 152.166 181.189C152.175 181.144 152.165 181.096 152.14 181.058C152.114 181.019 152.074 180.993 152.029 180.984C151.983 180.975 151.936 180.984 151.898 181.01L151.897 181.01L151.894 181.012L151.879 181.022C151.865 181.03 151.845 181.042 151.818 181.058C151.746 181.099 151.672 181.136 151.596 181.17C151.41 181.253 151.174 181.329 150.947 181.329C150.901 181.329 150.857 181.348 150.824 181.38C150.791 181.413 150.773 181.458 150.773 181.504C150.773 181.55 150.791 181.594 150.824 181.627C150.857 181.66 150.901 181.678 150.947 181.678C151.244 181.678 151.532 181.58 151.738 181.489C151.85 181.439 151.959 181.382 152.063 181.318L152.083 181.305L152.089 181.302L152.09 181.301L152.091 181.3Z" fill="black"/>
<path fill-rule="evenodd" clip-rule="evenodd" d="M100.177 11.4679L98.3041 7.94529C98.2934 7.92505 98.2867 7.9029 98.2845 7.88009C98.2823 7.85727 98.2846 7.83425 98.2913 7.81234C98.3048 7.76807 98.3354 7.731 98.3763 7.70927C98.4171 7.68754 98.465 7.68294 98.5092 7.69647C98.5311 7.70317 98.5515 7.71412 98.5692 7.7287C98.5869 7.74328 98.6015 7.76119 98.6123 7.78143L100.485 11.304L100.751 11.1627C100.832 11.1196 100.92 11.0929 101.012 11.0842C101.103 11.0754 101.195 11.0847 101.283 11.1115C101.37 11.1383 101.452 11.1821 101.523 11.2405C101.593 11.2988 101.652 11.3705 101.695 11.4515L101.808 11.664L103.007 13.4187L100.52 14.7407L99.7358 12.7657L99.6229 12.5531C99.5798 12.4722 99.5531 12.3835 99.5443 12.2923C99.5356 12.201 99.5448 12.109 99.5716 12.0213C99.5984 11.9336 99.6422 11.8521 99.7006 11.7814C99.7589 11.7106 99.8305 11.6521 99.9115 11.609L100.177 11.4679ZM100.075 11.9172L100.915 11.471C100.955 11.4495 100.999 11.4361 101.045 11.4317C101.091 11.4274 101.137 11.432 101.18 11.4454C101.224 11.4588 101.265 11.4807 101.3 11.5099C101.336 11.539 101.365 11.5748 101.387 11.6153L101.5 11.8277L100.044 12.6018L99.9309 12.3893C99.9093 12.3488 99.896 12.3045 99.8916 12.2588C99.8872 12.2132 99.8918 12.1672 99.9052 12.1233C99.9187 12.0795 99.9406 12.0387 99.9697 12.0034C99.9989 11.968 100.035 11.9387 100.075 11.9172ZM100.22 13.0396L100.7 14.2495L101.02 14.0793L100.643 13.3438L100.953 13.1843L101.329 13.9155L102.498 13.2935L101.764 12.2186L100.22 13.0396Z" fill="black"/>
<path d="M99.1821 13.1481C99.1997 13.1334 99.2201 13.1224 99.2419 13.1155C99.2638 13.1087 99.2868 13.1063 99.3097 13.1084C99.3325 13.1105 99.3547 13.117 99.375 13.1277C99.3953 13.1383 99.4132 13.1529 99.4279 13.1705C99.4426 13.1881 99.4536 13.2084 99.4604 13.2303C99.4673 13.2522 99.4697 13.2752 99.4676 13.298C99.4655 13.3209 99.459 13.3431 99.4483 13.3633C99.4377 13.3836 99.4231 13.4016 99.4055 13.4163L99.4053 13.4165L99.405 13.4168L99.4044 13.4172L99.4027 13.4186L99.3975 13.4229L99.3795 13.4367C99.3642 13.4483 99.3429 13.4635 99.3154 13.4821C99.2605 13.5187 99.1811 13.5665 99.0809 13.6144C98.8205 13.7393 98.5356 13.8047 98.2468 13.8058C98.2005 13.8058 98.1561 13.7874 98.1234 13.7547C98.0907 13.722 98.0723 13.6776 98.0723 13.6313C98.0723 13.585 98.0907 13.5406 98.1234 13.5079C98.1561 13.4752 98.2005 13.4568 98.2468 13.4568C98.4837 13.4556 98.7173 13.4018 98.9308 13.2992C98.9969 13.2678 99.0607 13.2318 99.1217 13.1915C99.1418 13.1783 99.1614 13.1643 99.1806 13.1497L99.1823 13.1479L99.1821 13.1481ZM99.7397 14.3C99.7782 14.2743 99.8049 14.2344 99.814 14.189C99.823 14.1436 99.8137 14.0965 99.788 14.058C99.7623 14.0194 99.7224 13.9927 99.677 13.9837C99.6316 13.9746 99.5845 13.9839 99.546 14.0096L99.5456 14.01L99.5421 14.0121L99.5271 14.0217C99.5133 14.0304 99.493 14.0424 99.4662 14.0578C99.3943 14.0989 99.3203 14.1362 99.2446 14.1698C99.0582 14.2527 98.8225 14.3293 98.5958 14.3293C98.5495 14.3293 98.5051 14.3477 98.4724 14.3804C98.4397 14.4131 98.4213 14.4575 98.4213 14.5038C98.4213 14.5501 98.4397 14.5945 98.4724 14.6272C98.5051 14.6599 98.5495 14.6783 98.5958 14.6783C98.8928 14.6783 99.1804 14.5804 99.3865 14.4888C99.4985 14.4391 99.6071 14.382 99.7116 14.318L99.7315 14.3054L99.7371 14.3017L99.7388 14.3007L99.7397 14.3Z" fill="black"/>
<path d="M47.4926 95.4365L47.8814 94.698V94.4293H47.3984V94H49.3584V94.5103L49.0495 95.1277H48.3784V94.765L47.7341 95.4365H47.4926ZM47.1167 99.9332V97.7714L48.3784 95.396H49.2108V99.9332H47.1167ZM47.4657 99.5842H48.8618V95.7451H48.5892L47.4654 97.867L47.4657 99.5842Z" fill="black"/>
<path d="M75.7626 50.4365L76.1514 49.698V49.4293H75.6684V49H77.6284V49.5103L77.3195 50.1277H76.6484V49.765L76.0041 50.4365H75.7626ZM75.3867 54.9332V52.7714L76.6484 50.396H77.4808V54.9332H75.3867ZM75.7357 54.5842H77.1318V50.7451H76.8592L75.7354 52.867L75.7357 54.5842Z" fill="black"/>
<path d="M169.996 89.4365L170.384 88.698V88.4293H169.901V88H171.861V88.5103L171.552 89.1277H170.881V88.765L170.237 89.4365H169.996ZM169.62 93.9332V91.7714L170.881 89.396H171.714V93.9332H169.62ZM169.969 93.5842H171.365V89.7451H171.092L169.968 91.867L169.969 93.5842Z" fill="black"/>
<path d="M199.313 157.437L199.702 156.698V156.429H199.219V156H201.179V156.51L200.87 157.128H200.199V156.765L199.554 157.437H199.313ZM198.937 161.933V159.771L200.199 157.396H201.031V161.933H198.937ZM199.286 161.584H200.682V157.745H200.409L199.286 159.867L199.286 161.584Z" fill="black"/>
<path d="M90.4208 161.437L90.8096 160.698V160.429H90.3266V160H92.2866V160.51L91.9777 161.128H91.3066V160.765L90.6623 161.437H90.4208ZM90.0449 165.933V163.771L91.3066 161.396H92.139V165.933H90.0449ZM90.3939 165.584H91.79V161.745H91.5174L90.3936 163.867L90.3939 165.584Z" fill="black"/>
<path d="M53.509 53.6783C53.364 53.6783 53.2384 53.6323 53.1321 53.5404C53.026 53.4485 52.9635 53.3318 52.9446 53.1903L52.4058 49.1411H56.4934L55.9538 53.1903C55.935 53.3318 55.8721 53.4485 55.7653 53.5404C55.6588 53.6323 55.5343 53.6783 55.3919 53.6783H53.509ZM53.4999 53.3292H55.3926C55.4461 53.3292 55.4931 53.3113 55.5336 53.2755C55.5739 53.2397 55.5984 53.195 55.6072 53.1415L56.0864 49.4901H52.797L53.2849 53.1415C53.294 53.195 53.3187 53.2397 53.3589 53.2755C53.3992 53.3113 53.4464 53.3292 53.4999 53.3292ZM54.4454 51.4097C54.6874 51.4097 54.8934 51.3248 55.0635 51.1549C55.2336 50.9855 55.3186 50.7796 55.3186 50.5371V50.0136H54.9696V50.5371C54.9696 50.6807 54.9183 50.8039 54.8157 50.9068C54.7128 51.0094 54.5896 51.0607 54.4461 51.0607C54.3025 51.0607 54.1793 51.0094 54.0765 50.9068C53.9736 50.8041 53.9223 50.6809 53.9226 50.5371V50.0136H53.5736V50.5371C53.5736 50.7796 53.6584 50.9855 53.828 51.1549C53.9974 51.3248 54.2032 51.4097 54.4454 51.4097ZM55.4938 48.4361C55.3973 48.4361 55.3148 48.4024 55.2464 48.3349C55.178 48.2674 55.1439 48.1852 55.1441 48.0881C55.1443 47.9911 55.1782 47.9086 55.2457 47.8407C55.3131 47.7727 55.3954 47.7387 55.4924 47.7384C55.5894 47.7382 55.6719 47.7719 55.7399 47.8396C55.8078 47.9073 55.8419 47.9897 55.8421 48.0867C55.8424 48.1838 55.8085 48.2662 55.7406 48.3342C55.6726 48.4021 55.5904 48.4359 55.4938 48.4361ZM53.7481 48.0871C53.5573 48.0871 53.3932 48.0184 53.256 47.8812C53.1187 47.7439 53.05 47.5787 53.05 47.3856C53.05 47.1925 53.1187 47.0284 53.256 46.8935C53.3932 46.7585 53.5584 46.691 53.7516 46.691C53.9447 46.691 54.1087 46.7585 54.2437 46.8935C54.3786 47.0284 54.4461 47.1936 54.4461 47.3891C54.4461 47.5796 54.3786 47.7437 54.2437 47.8812C54.1087 48.0184 53.9435 48.0871 53.7481 48.0871ZM55.3926 53.3292H53.2985H55.594H55.3926Z" fill="black"/>
<path d="M204.282 79.6783C204.137 79.6783 204.011 79.6323 203.905 79.5404C203.799 79.4485 203.736 79.3318 203.718 79.1903L203.179 75.1411H207.266L206.727 79.1903C206.708 79.3318 206.645 79.4485 206.538 79.5404C206.432 79.6323 206.307 79.6783 206.165 79.6783H204.282ZM204.273 79.3292H206.166C206.219 79.3292 206.266 79.3113 206.307 79.2755C206.347 79.2397 206.371 79.195 206.38 79.1415L206.859 75.4901H203.57L204.058 79.1415C204.067 79.195 204.092 79.2397 204.132 79.2755C204.172 79.3113 204.219 79.3292 204.273 79.3292ZM205.218 77.4097C205.46 77.4097 205.666 77.3248 205.836 77.1549C206.007 76.9855 206.092 76.7796 206.092 76.5371V76.0136H205.743V76.5371C205.743 76.6807 205.691 76.8039 205.589 76.9068C205.486 77.0094 205.363 77.0607 205.219 77.0607C205.075 77.0607 204.952 77.0094 204.849 76.9068C204.747 76.8041 204.695 76.6809 204.696 76.5371V76.0136H204.347V76.5371C204.347 76.7796 204.431 76.9855 204.601 77.1549C204.77 77.3248 204.976 77.4097 205.218 77.4097ZM206.267 74.4361C206.17 74.4361 206.088 74.4024 206.019 74.3349C205.951 74.2674 205.917 74.1852 205.917 74.0881C205.917 73.9911 205.951 73.9086 206.019 73.8407C206.086 73.7727 206.168 73.7387 206.265 73.7384C206.362 73.7382 206.445 73.7719 206.513 73.8396C206.581 73.9073 206.615 73.9897 206.615 74.0867C206.615 74.1838 206.581 74.2662 206.514 74.3342C206.446 74.4021 206.363 74.4359 206.267 74.4361ZM204.521 74.0871C204.33 74.0871 204.166 74.0184 204.029 73.8812C203.892 73.7439 203.823 73.5787 203.823 73.3856C203.823 73.1925 203.892 73.0284 204.029 72.8935C204.166 72.7585 204.331 72.691 204.525 72.691C204.718 72.691 204.882 72.7585 205.017 72.8935C205.152 73.0284 205.219 73.1936 205.219 73.3891C205.219 73.5796 205.152 73.7437 205.017 73.8812C204.882 74.0184 204.716 74.0871 204.521 74.0871ZM206.166 79.3292H204.071H206.367H206.166Z" fill="black"/>
<path d="M21.6385 76.1176C21.6385 75.7473 21.7856 75.3922 22.0474 75.1304C22.3092 74.8686 22.6643 74.7215 23.0345 74.7215H23.3836V73.6745H19.5444V74.7215C19.7296 74.7215 19.9071 74.7951 20.038 74.926C20.1689 75.0569 20.2425 75.2344 20.2425 75.4196V77.5136C20.2425 77.6988 20.1689 77.8763 20.038 78.0072C19.9071 78.1381 19.7296 78.2117 19.5444 78.2117V81.7018H23.3836V79.2587L23.333 79.2283C22.162 78.3862 21.6385 77.5136 21.6385 76.1176ZM21.6385 76.1176H20.2425M22.6855 74.7655V75.2451C22.6855 75.4765 22.7775 75.6984 22.9411 75.862C23.1047 76.0257 23.3267 76.1176 23.5581 76.1176M24.4306 73.5V74.896" stroke="black" stroke-width="0.4"/>
<path d="M122.852 193.316C122.852 194.376 122.227 195.235 121.456 195.235C120.685 195.235 120.06 194.376 120.06 193.316C120.06 192.255 120.685 191.396 121.456 191.396C122.227 191.396 122.852 192.255 122.852 193.316Z" stroke="black" stroke-width="0.4" stroke-linecap="round" stroke-linejoin="round"/>
<path d="M121.459 193.316H121.456M126.975 193.732C127.017 193.548 127.04 193.348 127.04 193.141C127.04 192.177 126.543 191.396 125.93 191.396H121.456C122.557 191.396 123.051 192.776 122.86 193.688C122.662 194.63 121.867 195.713 121.941 196.677C121.954 196.848 122.084 196.98 122.24 196.98H125.77C125.941 196.98 126.076 196.819 126.062 196.631C125.991 195.692 126.765 194.646 126.975 193.732Z" stroke="black" stroke-width="0.4" stroke-linecap="round" stroke-linejoin="round"/>
<path d="M197.192 105.316C197.192 106.376 196.567 107.235 195.796 107.235C195.025 107.235 194.4 106.376 194.4 105.316C194.4 104.255 195.025 103.396 195.796 103.396C196.567 103.396 197.192 104.255 197.192 105.316Z" stroke="black" stroke-width="0.4" stroke-linecap="round" stroke-linejoin="round"/>
<path d="M195.799 105.316H195.795M201.315 105.732C201.357 105.548 201.38 105.348 201.38 105.141C201.38 104.178 200.883 103.396 200.269 103.396H195.796C196.897 103.396 197.391 104.776 197.2 105.688C197.002 106.63 196.207 107.713 196.281 108.677C196.293 108.848 196.424 108.98 196.58 108.98H200.11C200.281 108.98 200.416 108.819 200.402 108.631C200.33 107.692 201.105 106.646 201.315 105.732Z" stroke="black" stroke-width="0.4" stroke-linecap="round" stroke-linejoin="round"/>
<path d="M28.6192 138.316C28.6192 139.376 27.9945 140.235 27.2232 140.235C26.4519 140.235 25.8271 139.376 25.8271 138.316C25.8271 137.255 26.4519 136.396 27.2232 136.396C27.9945 136.396 28.6192 137.255 28.6192 138.316Z" stroke="black" stroke-width="0.4" stroke-linecap="round" stroke-linejoin="round"/>
<path d="M27.2258 138.316H27.2227M32.7419 138.732C32.7838 138.548 32.8072 138.348 32.8072 138.141C32.8072 137.178 32.3102 136.396 31.6966 136.396H27.223C28.3241 136.396 28.818 137.776 28.6271 138.688C28.4292 139.63 27.6345 140.713 27.7078 141.677C27.7207 141.848 27.8509 141.98 28.0072 141.98H31.5368C31.7085 141.98 31.8432 141.819 31.8289 141.631C31.7577 140.692 32.5322 139.646 32.7419 138.732Z" stroke="black" stroke-width="0.4" stroke-linecap="round" stroke-linejoin="round"/>
<path d="M205.568 137.316C205.568 138.376 204.943 139.235 204.172 139.235C203.401 139.235 202.776 138.376 202.776 137.316C202.776 136.255 203.401 135.396 204.172 135.396C204.943 135.396 205.568 136.255 205.568 137.316Z" stroke="black" stroke-width="0.4" stroke-linecap="round" stroke-linejoin="round"/>
<path d="M204.175 137.316H204.171M209.691 137.732C209.733 137.548 209.756 137.348 209.756 137.141C209.756 136.178 209.259 135.396 208.645 135.396H204.172C205.273 135.396 205.767 136.776 205.576 137.688C205.378 138.63 204.583 139.713 204.657 140.677C204.669 140.848 204.8 140.98 204.956 140.98H208.486C208.657 140.98 208.792 140.819 208.778 140.631C208.706 139.692 209.481 138.646 209.691 137.732Z" stroke="black" stroke-width="0.4" stroke-linecap="round" stroke-linejoin="round"/>
<path d="M186.568 123.879C186.568 123.685 186.511 123.495 186.403 123.334C186.295 123.173 186.142 123.047 185.962 122.972C185.783 122.898 185.586 122.879 185.395 122.917C185.205 122.954 185.03 123.048 184.893 123.185C184.755 123.323 184.662 123.497 184.624 123.688C184.586 123.878 184.606 124.076 184.68 124.255C184.754 124.434 184.88 124.588 185.041 124.696C185.203 124.803 185.393 124.861 185.587 124.861C185.847 124.861 186.097 124.758 186.281 124.573C186.465 124.389 186.568 124.14 186.568 123.879ZM185.587 124.468C185.47 124.468 185.356 124.434 185.259 124.369C185.163 124.304 185.087 124.212 185.043 124.105C184.998 123.997 184.986 123.879 185.009 123.764C185.032 123.65 185.088 123.545 185.17 123.463C185.253 123.381 185.358 123.324 185.472 123.302C185.586 123.279 185.704 123.291 185.812 123.335C185.92 123.38 186.012 123.455 186.076 123.552C186.141 123.649 186.176 123.763 186.176 123.879C186.176 124.036 186.114 124.185 186.003 124.296C185.893 124.406 185.743 124.468 185.587 124.468ZM185.418 128.002C185.506 128.002 185.592 127.977 185.666 127.929C185.74 127.881 185.799 127.813 185.835 127.733L186.876 125.445C187.198 125.179 187.43 124.821 187.541 124.418C187.652 124.015 187.636 123.588 187.495 123.195C187.354 122.801 187.095 122.461 186.754 122.221C186.412 121.98 186.004 121.851 185.587 121.851C185.576 121.851 185.565 121.852 185.554 121.853L181.062 122.603C180.955 122.621 180.858 122.676 180.788 122.759C180.718 122.841 180.679 122.946 180.679 123.054V124.705C180.679 124.813 180.718 124.918 180.788 125C180.858 125.083 180.955 125.138 181.062 125.155L184.343 125.703V127.544C184.343 127.665 184.392 127.782 184.478 127.868C184.563 127.954 184.68 128.002 184.801 128.002H184.867V128.067C184.867 128.397 184.998 128.713 185.231 128.947C185.464 129.18 185.78 129.311 186.11 129.311H186.634C186.686 129.311 186.736 129.29 186.773 129.253C186.809 129.217 186.83 129.167 186.83 129.115C186.83 129.062 186.809 129.013 186.773 128.976C186.736 128.939 186.686 128.918 186.634 128.918H186.11C185.885 128.918 185.668 128.829 185.509 128.669C185.349 128.509 185.259 128.293 185.259 128.067V128.002H185.418ZM181.071 124.705V123.054C181.071 123.039 181.077 123.023 181.087 123.011C181.097 122.999 181.111 122.991 181.126 122.989L185.602 122.243C186.036 122.243 186.452 122.416 186.759 122.723C187.066 123.029 187.238 123.445 187.238 123.879C187.238 124.313 187.066 124.729 186.759 125.036C186.452 125.343 186.036 125.515 185.602 125.515L181.126 124.769C181.111 124.767 181.097 124.759 181.087 124.747C181.077 124.735 181.071 124.72 181.071 124.705ZM184.736 127.544V125.769L185.554 125.905C185.565 125.907 185.576 125.908 185.587 125.908C185.827 125.908 186.066 125.865 186.291 125.782L185.478 127.571C185.473 127.583 185.464 127.592 185.454 127.599C185.443 127.606 185.431 127.609 185.418 127.609H184.801C184.784 127.609 184.767 127.603 184.755 127.59C184.743 127.578 184.736 127.561 184.736 127.544Z" fill="black"/>
<path d="M43.1244 113.879C43.1244 113.685 43.0669 113.495 42.959 113.334C42.8511 113.173 42.6978 113.047 42.5185 112.972C42.3391 112.898 42.1417 112.879 41.9513 112.917C41.7609 112.954 41.586 113.048 41.4487 113.185C41.3115 113.323 41.218 113.497 41.1801 113.688C41.1422 113.878 41.1617 114.076 41.236 114.255C41.3103 114.434 41.4361 114.588 41.5975 114.696C41.7589 114.803 41.9487 114.861 42.1428 114.861C42.4032 114.861 42.6528 114.758 42.8369 114.573C43.021 114.389 43.1244 114.14 43.1244 113.879ZM42.1428 114.468C42.0264 114.468 41.9125 114.434 41.8156 114.369C41.7188 114.304 41.6433 114.212 41.5987 114.105C41.5541 113.997 41.5425 113.879 41.5652 113.764C41.5879 113.65 41.644 113.545 41.7264 113.463C41.8088 113.381 41.9137 113.324 42.0279 113.302C42.1422 113.279 42.2606 113.291 42.3682 113.335C42.4758 113.38 42.5678 113.455 42.6325 113.552C42.6973 113.649 42.7318 113.763 42.7318 113.879C42.7318 114.036 42.6697 114.185 42.5593 114.296C42.4488 114.406 42.299 114.468 42.1428 114.468ZM41.9743 118.002C42.0623 118.002 42.1483 117.977 42.2223 117.929C42.2962 117.881 42.3548 117.813 42.3912 117.733L43.4317 115.445C43.7541 115.179 43.9866 114.821 44.0975 114.418C44.2084 114.015 44.1923 113.588 44.0512 113.195C43.9102 112.801 43.6513 112.461 43.3097 112.221C42.9681 111.98 42.5606 111.851 42.1428 111.851C42.1319 111.851 42.1209 111.852 42.1101 111.853L37.6177 112.603C37.5109 112.621 37.4138 112.676 37.3437 112.759C37.2737 112.841 37.2351 112.946 37.2349 113.054V114.705C37.2351 114.813 37.2737 114.918 37.3437 115C37.4138 115.083 37.5109 115.138 37.6177 115.155L40.8995 115.703V117.544C40.8995 117.665 40.9477 117.782 41.0337 117.868C41.1196 117.954 41.2361 118.002 41.3576 118.002H41.423V118.067C41.423 118.397 41.554 118.713 41.7872 118.947C42.0203 119.18 42.3366 119.311 42.6664 119.311H43.1899C43.2419 119.311 43.2919 119.29 43.3287 119.253C43.3655 119.217 43.3862 119.167 43.3862 119.115C43.3862 119.062 43.3655 119.013 43.3287 118.976C43.2919 118.939 43.2419 118.918 43.1899 118.918H42.6664C42.4407 118.918 42.2243 118.829 42.0648 118.669C41.9053 118.509 41.8156 118.293 41.8156 118.067V118.002H41.9743ZM37.6275 114.705V113.054C37.6273 113.039 37.6327 113.023 37.6427 113.011C37.6527 112.999 37.6667 112.991 37.6821 112.989L42.1585 112.243C42.5924 112.243 43.0086 112.416 43.3154 112.723C43.6222 113.029 43.7945 113.445 43.7945 113.879C43.7945 114.313 43.6222 114.729 43.3154 115.036C43.0086 115.343 42.5924 115.515 42.1585 115.515L37.6821 114.769C37.6668 114.767 37.6529 114.759 37.6429 114.747C37.6329 114.735 37.6274 114.72 37.6275 114.705ZM41.2921 117.544V115.769L42.1101 115.905C42.1209 115.907 42.1319 115.908 42.1428 115.908C42.3833 115.908 42.6219 115.865 42.8473 115.782L42.0339 117.571C42.0287 117.583 42.0203 117.592 42.0097 117.599C41.9992 117.606 41.9869 117.609 41.9743 117.609H41.3576C41.3402 117.609 41.3236 117.603 41.3113 117.59C41.299 117.578 41.2921 117.561 41.2921 117.544Z" fill="black"/>
<path fill-rule="evenodd" clip-rule="evenodd" d="M90.9876 182.081C90.9724 182.08 90.9574 182.083 90.9432 182.088C90.9291 182.093 90.9161 182.101 90.9051 182.112C90.8941 182.122 90.8852 182.135 90.879 182.148C90.8728 182.162 90.8694 182.177 90.8689 182.192L90.7468 183.939C90.7418 184.109 90.717 184.278 90.6731 184.442C90.6476 184.535 90.5998 184.62 90.5335 184.69C90.4626 184.752 90.3753 184.792 90.2822 184.805C90.1004 184.84 89.8976 184.833 89.7406 184.85C89.6603 184.85 89.58 184.85 89.4997 184.868V184.065C89.4997 183.936 89.4997 183.803 89.4823 183.67C89.4648 183.538 89.4823 183.492 89.4544 183.402C89.4264 183.311 89.4264 183.248 89.4055 183.174C89.385 183.097 89.3593 183.021 89.3284 182.948C89.2459 182.74 89.0873 182.571 88.8848 182.476C88.504 182.277 87.9871 182.347 87.5749 182.256C87.344 182.218 87.11 182.203 86.8762 182.21C86.6419 182.219 86.4091 182.243 86.1778 182.28C85.7355 182.318 85.2972 182.394 84.868 182.507C84.6571 182.568 84.4687 182.689 84.3263 182.856C84.2674 182.941 84.2293 183.038 84.2147 183.14C84.1988 183.325 84.1988 183.512 84.2147 183.698C84.2147 183.974 84.2496 184.247 84.281 184.516C84.3054 184.722 84.3368 184.928 84.3682 185.134H84.3019C84.0474 185.142 83.7928 185.128 83.5407 185.092C83.3927 185.072 83.2534 185.01 83.139 184.914C83.0925 184.846 83.067 184.766 83.0657 184.684C83.0273 184.477 83.0343 184.247 83.0238 184.152C82.9924 183.814 82.9575 183.475 82.9436 183.136C82.9315 182.911 82.9315 182.686 82.9436 182.462C82.9474 182.442 82.945 182.421 82.9367 182.403C82.9283 182.384 82.9145 182.369 82.897 182.359C82.8795 182.349 82.8593 182.344 82.8391 182.346C82.819 182.347 82.7998 182.355 82.7844 182.369C82.7638 182.386 82.7507 182.411 82.7478 182.437C82.7249 182.669 82.7143 182.902 82.716 183.136C82.716 183.485 82.7404 183.834 82.7614 184.183C82.756 184.395 82.7642 184.606 82.7858 184.815C82.8029 184.936 82.8539 185.048 82.9324 185.14C83.0836 185.278 83.2695 185.372 83.4702 185.413C83.7395 185.465 84.0133 185.491 84.2876 185.489C84.7242 185.511 85.1573 185.507 85.5905 185.489C86.2333 185.458 86.8759 185.392 87.5187 185.343C88.0458 185.297 88.5665 185.284 89.0973 185.245C89.3242 185.245 89.5514 185.203 89.7786 185.175C90.006 185.163 90.2318 185.129 90.4529 185.074C90.566 185.037 90.6682 184.973 90.7495 184.886C90.8473 184.779 90.9169 184.649 90.952 184.508C90.9961 184.323 91.0195 184.133 91.0218 183.942L91.0923 182.196C91.0924 182.167 91.0817 182.139 91.0623 182.118C91.0429 182.097 91.0163 182.083 90.9876 182.081ZM84.5221 183.265C84.5266 183.193 84.5521 183.124 84.5954 183.066C84.7498 182.918 84.9486 182.824 85.1612 182.8C85.5419 182.717 85.9751 182.706 86.2546 182.664C86.4663 182.631 86.6796 182.61 86.8937 182.601C87.1037 182.59 87.3144 182.599 87.5226 182.629C87.8541 182.678 88.2593 182.629 88.5948 182.713C88.6916 182.732 88.7827 182.773 88.8604 182.834C88.9382 182.894 89.0004 182.973 89.0418 183.062C89.0705 183.122 89.0937 183.183 89.1116 183.247C89.1316 183.311 89.1479 183.377 89.1605 183.443V183.568C88.4098 183.596 87.6482 183.631 86.8902 183.684C86.6424 183.684 86.3911 183.719 86.1395 183.739C85.8878 183.76 85.6397 183.789 85.3919 183.803C85.1441 183.817 84.8118 183.82 84.5186 183.82V183.705C84.5186 183.579 84.5047 183.415 84.5221 183.265ZM89.0628 184.886C88.5358 184.91 88.015 184.917 87.4807 184.952C86.8378 185.001 86.1988 185.064 85.5594 185.102C85.2453 185.14 84.9238 185.14 84.5954 185.14C84.5745 184.928 84.5501 184.715 84.5361 184.505C84.5221 184.295 84.5361 184.194 84.5361 184.037C85.1384 184.097 85.744 184.115 86.3489 184.093C86.7258 184.093 87.1069 184.04 87.4842 183.998C88.0499 183.936 88.6122 183.848 89.1748 183.785H89.1923L89.2237 184.061L89.269 184.868L89.0628 184.886ZM89.1291 187.111C89.0369 187.071 88.9342 187.064 88.8373 187.09C88.7404 187.116 88.6551 187.173 88.5951 187.254C88.4817 187.4 88.4126 187.576 88.3958 187.76C88.3784 187.985 88.3784 188.21 88.3958 188.434C88.349 188.405 88.2964 188.386 88.2417 188.378C88.1869 188.37 88.1311 188.374 88.0779 188.389C87.948 188.441 87.8433 188.541 87.7847 188.668C87.7358 188.757 87.717 188.858 87.7323 188.958C87.7526 189.079 87.7903 189.197 87.844 189.308C87.9082 189.459 87.9804 189.607 88.0604 189.751C88.1395 189.896 88.2279 190.034 88.3257 190.167C88.3373 190.184 88.3536 190.197 88.3726 190.204C88.3916 190.211 88.4124 190.213 88.4323 190.208C88.4522 190.204 88.4702 190.194 88.4842 190.179C88.4982 190.164 88.5074 190.145 88.5106 190.125C88.5151 190.098 88.509 190.071 88.4935 190.048C88.4085 189.919 88.3327 189.783 88.2667 189.643C88.1999 189.502 88.1416 189.357 88.0918 189.21C88.0634 189.136 88.0401 189.06 88.022 188.983C88.0127 188.931 88.0213 188.878 88.0465 188.833C88.0726 188.787 88.1098 188.748 88.1546 188.721C88.1756 188.721 88.1965 188.721 88.221 188.738L88.3606 188.871C88.378 188.888 88.399 188.934 88.4129 188.951C88.4362 188.98 88.4681 189.001 88.504 189.011C88.5294 189.019 88.5566 189.022 88.5833 189.019C88.61 189.015 88.6354 189.005 88.6576 188.99C88.6797 188.976 88.6987 188.958 88.7131 188.936C88.7276 188.914 88.7372 188.89 88.7413 188.864C88.7972 188.574 88.7413 188.165 88.7693 187.816C88.7797 187.704 88.8181 187.597 88.8809 187.505C88.895 187.489 88.9141 187.478 88.935 187.475C88.956 187.471 88.9777 187.474 88.9965 187.484C89.0532 187.506 89.1068 187.534 89.157 187.568C89.3106 187.674 89.4512 187.797 89.5765 187.935C89.7957 188.183 89.9194 188.501 89.9255 188.833C89.9255 189.18 89.8491 189.524 89.7022 189.838C89.6892 189.866 89.6878 189.898 89.6983 189.927C89.7088 189.956 89.7302 189.979 89.758 189.992C89.7858 190.005 89.8176 190.006 89.8464 189.996C89.8752 189.985 89.8986 189.964 89.9116 189.936C90.0896 189.594 90.1897 189.217 90.2047 188.833C90.2194 188.427 90.0882 188.029 89.8348 187.711C89.6482 187.46 89.4069 187.255 89.1291 187.111ZM85.8948 188.48C85.801 188.468 85.7057 188.478 85.6165 188.509C85.5273 188.541 85.4468 188.593 85.3814 188.661C85.3814 188.605 85.3605 188.546 85.35 188.487C85.3186 188.232 85.3186 187.952 85.2907 187.76C85.2786 187.633 85.2492 187.509 85.2034 187.39C85.1687 187.307 85.1071 187.238 85.0285 187.194C84.9631 187.161 84.8912 187.141 84.8177 187.138C84.7442 187.134 84.6708 187.146 84.6024 187.173C84.3172 187.308 84.0757 187.52 83.9058 187.786C83.7359 188.052 83.6444 188.36 83.6419 188.675C83.6729 189.204 83.8309 189.719 84.1026 190.174C84.1093 190.187 84.1186 190.199 84.13 190.209C84.1414 190.219 84.1547 190.227 84.1691 190.231C84.1835 190.236 84.1987 190.237 84.2137 190.236C84.2287 190.234 84.2433 190.23 84.2565 190.223C84.2703 190.216 84.2827 190.207 84.2929 190.196C84.3031 190.185 84.3109 190.172 84.3158 190.157C84.3207 190.143 84.3226 190.128 84.3214 190.112C84.3202 190.097 84.316 190.083 84.3089 190.069C84.0834 189.638 83.9638 189.159 83.9599 188.672C83.9768 188.37 84.1005 188.084 84.3089 187.865C84.4003 187.759 84.5061 187.666 84.6233 187.589C84.7036 187.537 84.7874 187.484 84.8642 187.526C84.9409 187.568 84.8886 187.593 84.8991 187.634C84.9095 187.676 84.8991 187.764 84.9235 187.812C84.9619 188.036 84.9549 188.386 85.0212 188.665C85.054 188.814 85.1224 188.953 85.2205 189.07C85.2378 189.09 85.2591 189.107 85.2832 189.118C85.3073 189.129 85.3335 189.136 85.3601 189.136C85.507 189.136 85.5419 189.011 85.6501 188.885C85.7583 188.759 85.8002 188.756 85.8665 188.766C85.9332 188.777 85.9262 188.833 85.9157 188.923L85.8704 189.15L85.7587 189.562L85.5109 190.149C85.4997 190.174 85.4982 190.201 85.5066 190.226C85.515 190.252 85.5328 190.273 85.5563 190.286C85.5684 190.291 85.5815 190.295 85.595 190.296C85.6084 190.296 85.6219 190.294 85.6346 190.29C85.6473 190.285 85.6589 190.278 85.6688 190.269C85.6787 190.26 85.6867 190.249 85.6924 190.237L85.9541 189.681L86.1007 189.262L86.1705 189C86.2089 188.672 86.0728 188.518 85.8948 188.48ZM85.7936 185.815C85.7742 185.797 85.7486 185.786 85.722 185.786C85.6955 185.786 85.6699 185.797 85.6505 185.815C85.5703 185.882 85.5105 185.97 85.4778 186.069C85.445 186.169 85.4407 186.275 85.4652 186.377C85.4766 186.447 85.4963 186.514 85.5245 186.579C85.5594 186.665 85.6013 186.746 85.6501 186.824C85.7409 186.981 85.8595 187.117 85.7479 187.292C85.7293 187.317 85.7211 187.348 85.7251 187.378C85.729 187.409 85.7447 187.437 85.7688 187.456C85.7925 187.475 85.8227 187.484 85.8528 187.48C85.8829 187.477 85.9106 187.462 85.9297 187.439C85.9806 187.389 86.0211 187.329 86.0486 187.263C86.0762 187.197 86.0903 187.126 86.0902 187.055C86.0906 186.926 86.0623 186.798 86.0065 186.681C85.9646 186.583 85.9122 186.489 85.8634 186.398C85.7831 186.255 85.6959 186.118 85.8075 185.947C85.8204 185.927 85.826 185.903 85.8234 185.879C85.8209 185.855 85.8104 185.832 85.7936 185.815ZM87.1031 186.625C87.0563 186.543 87.0143 186.457 86.9774 186.37C86.9358 186.29 86.9154 186.201 86.9181 186.112C86.9216 186.004 86.9425 185.898 86.9809 185.797C86.9875 185.786 86.9917 185.773 86.9931 185.76C86.9946 185.746 86.9933 185.733 86.9894 185.72C86.9855 185.707 86.979 185.696 86.9703 185.685C86.9617 185.675 86.951 185.667 86.939 185.661C86.9274 185.655 86.9146 185.65 86.9014 185.649C86.8881 185.647 86.8747 185.649 86.8619 185.653C86.8492 185.657 86.8374 185.663 86.8272 185.672C86.8171 185.68 86.8088 185.691 86.8029 185.703C86.7036 185.833 86.6345 185.983 86.6005 186.143C86.5759 186.258 86.5759 186.377 86.6005 186.492C86.6417 186.6 86.6929 186.702 86.7541 186.8C86.8083 186.873 86.8548 186.951 86.8937 187.033C86.9132 187.079 86.9215 187.129 86.9179 187.179C86.9142 187.229 86.8988 187.277 86.8727 187.32C86.857 187.338 86.8473 187.361 86.8451 187.385C86.8428 187.408 86.8481 187.432 86.8601 187.453C86.8721 187.474 86.8903 187.49 86.9122 187.5C86.934 187.51 86.9584 187.513 86.982 187.508C86.9976 187.505 87.0124 187.499 87.0255 187.49C87.0386 187.481 87.0497 187.47 87.0581 187.456C87.1218 187.391 87.1688 187.311 87.1949 187.223C87.221 187.136 87.2256 187.043 87.2081 186.954C87.1894 186.84 87.1541 186.729 87.1034 186.625M88.0814 185.626C88.0624 185.607 88.0366 185.597 88.0098 185.597C87.983 185.597 87.9572 185.607 87.9383 185.626C87.861 185.685 87.8 185.763 87.761 185.852C87.7219 185.941 87.706 186.039 87.7149 186.136C87.7212 186.245 87.7498 186.352 87.7987 186.45C87.851 186.565 87.9348 186.674 87.9906 186.8C88.0458 186.878 88.0828 186.967 88.0988 187.061C88.1029 187.084 88.1016 187.108 88.0949 187.13C88.0882 187.153 88.0764 187.173 88.0604 187.191C88.0439 187.207 88.0327 187.227 88.0281 187.25C88.0235 187.272 88.0257 187.296 88.0345 187.317C88.0434 187.338 88.0584 187.356 88.0776 187.369C88.0968 187.382 88.1194 187.388 88.1424 187.388C88.173 187.388 88.2024 187.376 88.2244 187.355C88.272 187.322 88.3119 187.28 88.3414 187.231C88.3709 187.181 88.3894 187.126 88.3955 187.069C88.4107 186.924 88.3916 186.778 88.3396 186.643C88.2884 186.515 88.229 186.392 88.1616 186.272C88.0974 186.192 88.0542 186.097 88.036 185.997C88.0297 185.91 88.0531 185.824 88.1023 185.752C88.1137 185.732 88.1179 185.708 88.1141 185.685C88.1103 185.662 88.0987 185.642 88.0814 185.626Z" fill="black"/>
<path fill-rule="evenodd" clip-rule="evenodd" d="M169.515 64.0806C169.5 64.0802 169.485 64.0827 169.471 64.088C169.456 64.0934 169.443 64.1015 169.432 64.1119C169.421 64.1222 169.413 64.1347 169.406 64.1485C169.4 64.1623 169.397 64.1772 169.396 64.1923L169.274 65.9388C169.269 66.1088 169.244 66.2777 169.2 66.442C169.175 66.5349 169.127 66.62 169.061 66.6898C168.99 66.7516 168.903 66.7916 168.81 66.805C168.628 66.8399 168.425 66.8329 168.268 66.8504C168.188 66.8504 168.107 66.8504 168.027 66.8678V66.0651C168.027 65.936 168.027 65.803 168.01 65.6704C167.992 65.5377 168.01 65.4924 167.982 65.4016C167.954 65.3105 167.954 65.2477 167.933 65.1744C167.912 65.0971 167.887 65.0213 167.856 64.9476C167.773 64.7396 167.615 64.5708 167.412 64.4757C167.031 64.2768 166.514 64.3466 166.102 64.2558C165.871 64.2182 165.637 64.203 165.404 64.2105C165.169 64.2193 164.936 64.2426 164.705 64.2803C164.263 64.3179 163.825 64.3938 163.395 64.5071C163.184 64.5677 162.996 64.6891 162.854 64.8561C162.795 64.9406 162.757 65.0376 162.742 65.1395C162.726 65.3253 162.726 65.5121 162.742 65.6979C162.742 65.974 162.777 66.2466 162.808 66.5157C162.833 66.7216 162.864 66.9275 162.896 67.1338H162.829C162.575 67.1419 162.32 67.1279 162.068 67.0919C161.92 67.0716 161.781 67.0099 161.666 66.9139C161.62 66.846 161.594 66.7659 161.593 66.6836C161.555 66.4773 161.562 66.2466 161.551 66.1524C161.52 65.8138 161.485 65.4746 161.471 65.1357C161.459 64.9112 161.459 64.6862 161.471 64.4617C161.475 64.4419 161.472 64.4213 161.464 64.4028C161.456 64.3844 161.442 64.369 161.424 64.3587C161.407 64.3485 161.387 64.344 161.366 64.3457C161.346 64.3475 161.327 64.3555 161.312 64.3686C161.291 64.3859 161.278 64.4105 161.275 64.4373C161.252 64.6694 161.242 64.9025 161.243 65.1357C161.243 65.4847 161.268 65.8341 161.289 66.1834C161.283 66.3949 161.292 66.6056 161.313 66.8155C161.33 66.9355 161.381 67.0483 161.46 67.1404C161.611 67.2783 161.797 67.3724 161.998 67.4126C162.267 67.4649 162.541 67.4907 162.815 67.4894C163.252 67.5107 163.685 67.5072 164.118 67.4894C164.761 67.458 165.403 67.3917 166.046 67.3428C166.573 67.2975 167.094 67.2835 167.625 67.2451C167.852 67.2451 168.079 67.2032 168.306 67.1753C168.533 67.1628 168.759 67.1289 168.98 67.0741C169.093 67.0374 169.196 66.9729 169.277 66.8856C169.375 66.7786 169.444 66.649 169.479 66.5083C169.523 66.3228 169.547 66.1329 169.549 65.9422L169.62 64.1958C169.62 64.167 169.609 64.1392 169.59 64.1178C169.57 64.0965 169.544 64.0832 169.515 64.0806ZM163.049 65.2648C163.054 65.1928 163.079 65.1236 163.123 65.0659C163.277 64.9178 163.476 64.8245 163.689 64.8003C164.069 64.7165 164.502 64.706 164.782 64.6642C164.994 64.631 165.207 64.61 165.421 64.6013C165.631 64.5896 165.842 64.5989 166.05 64.6293C166.381 64.6781 166.787 64.6293 167.122 64.713C167.219 64.7315 167.31 64.7728 167.388 64.8335C167.466 64.8942 167.528 64.9726 167.569 65.062C167.598 65.1218 167.621 65.1835 167.639 65.247C167.659 65.3115 167.675 65.3767 167.688 65.4428V65.5685C166.937 65.5964 166.176 65.6313 165.418 65.6836C165.17 65.6836 164.918 65.7185 164.667 65.7395C164.415 65.7604 164.167 65.7887 163.919 65.8026C163.671 65.8166 163.339 65.8201 163.046 65.8201V65.7049C163.046 65.5793 163.032 65.4152 163.049 65.2648ZM167.59 66.8856C167.063 66.9101 166.542 66.917 166.008 66.9519C165.365 67.0008 164.726 67.0636 164.087 67.102C163.773 67.1404 163.451 67.1404 163.123 67.1404C163.102 66.9275 163.077 66.7146 163.063 66.5049C163.049 66.2954 163.063 66.1939 163.063 66.0368C163.666 66.0968 164.271 66.1154 164.876 66.0927C165.253 66.0927 165.634 66.0403 166.012 65.9984C166.577 65.9356 167.14 65.8484 167.702 65.7852H167.72L167.751 66.0609L167.796 66.8682L167.59 66.8856ZM167.656 69.1106C167.564 69.071 167.462 69.0637 167.365 69.0896C167.268 69.1156 167.182 69.1734 167.122 69.2537C167.009 69.4003 166.94 69.5758 166.923 69.7601C166.906 69.9845 166.906 70.21 166.923 70.4344C166.876 70.4049 166.824 70.3857 166.769 70.3779C166.714 70.37 166.658 70.3738 166.605 70.389C166.475 70.4414 166.371 70.5412 166.312 70.6682C166.263 70.7565 166.244 70.8584 166.26 70.9579C166.28 71.0794 166.318 71.197 166.371 71.3076C166.436 71.4591 166.508 71.6068 166.588 71.7509C166.667 71.8958 166.755 72.0345 166.853 72.1669C166.865 72.1836 166.881 72.1965 166.9 72.2039C166.919 72.2113 166.94 72.2128 166.96 72.2083C166.98 72.2038 166.998 72.1935 167.012 72.1787C167.026 72.1638 167.035 72.1451 167.038 72.125C167.042 72.0981 167.036 72.0706 167.021 72.0482C166.936 71.9186 166.86 71.7832 166.794 71.643C166.727 71.5018 166.669 71.3573 166.619 71.2095C166.591 71.1356 166.567 71.0598 166.549 70.9827C166.54 70.9313 166.549 70.8783 166.574 70.8326C166.6 70.7869 166.637 70.7485 166.682 70.7209C166.703 70.7209 166.724 70.7209 166.748 70.7384L166.888 70.871C166.905 70.8884 166.926 70.9338 166.94 70.9513C166.964 70.9802 166.995 71.001 167.031 71.0106C167.057 71.0194 167.084 71.0222 167.111 71.0185C167.137 71.0149 167.163 71.005 167.185 70.9897C167.207 70.976 167.226 70.9576 167.24 70.936C167.255 70.9143 167.265 70.8897 167.269 70.864C167.325 70.574 167.269 70.1653 167.297 69.8159C167.307 69.7042 167.345 69.5974 167.408 69.5053C167.422 69.4893 167.441 69.4785 167.462 69.4747C167.483 69.4708 167.505 69.4743 167.524 69.4844C167.581 69.506 167.634 69.5339 167.684 69.5681C167.838 69.6739 167.979 69.7971 168.104 69.9346C168.323 70.183 168.447 70.5013 168.453 70.8326C168.453 71.1802 168.376 71.5236 168.23 71.8385C168.217 71.8662 168.215 71.898 168.226 71.9268C168.236 71.9556 168.258 71.9791 168.285 71.992C168.313 72.005 168.345 72.0064 168.374 71.9959C168.402 71.9854 168.426 71.9639 168.439 71.9362C168.617 71.5941 168.717 71.2172 168.732 70.8326C168.747 70.4266 168.616 70.0288 168.362 69.7112C168.176 69.46 167.934 69.2546 167.656 69.1106ZM164.422 70.4798C164.328 70.4677 164.233 70.4778 164.144 70.5093C164.055 70.5409 163.974 70.5929 163.909 70.6612C163.909 70.6054 163.888 70.5461 163.877 70.4867C163.846 70.232 163.846 69.9524 163.818 69.7601C163.806 69.6334 163.777 69.5089 163.731 69.3901C163.696 69.3071 163.634 69.2382 163.556 69.1943C163.49 69.1607 163.419 69.1414 163.345 69.1378C163.272 69.1342 163.198 69.1463 163.13 69.1734C162.845 69.3079 162.603 69.5203 162.433 69.7859C162.263 70.0516 162.172 70.3598 162.169 70.6752C162.2 71.2045 162.358 71.7185 162.63 72.1739C162.637 72.1874 162.646 72.1995 162.657 72.2093C162.669 72.2192 162.682 72.2266 162.696 72.2312C162.711 72.2358 162.726 72.2374 162.741 72.2359C162.756 72.2344 162.771 72.23 162.784 72.2227C162.798 72.2164 162.81 72.2073 162.82 72.1961C162.83 72.1848 162.838 72.1716 162.843 72.1572C162.848 72.1428 162.85 72.1276 162.849 72.1125C162.848 72.0973 162.843 72.0826 162.836 72.0692C162.611 71.6376 162.491 71.1586 162.487 70.6717C162.504 70.3698 162.628 70.0838 162.836 69.8648C162.928 69.7587 163.033 69.6659 163.151 69.5891C163.231 69.5367 163.315 69.4844 163.392 69.5263C163.468 69.5681 163.416 69.5926 163.426 69.6344C163.437 69.6763 163.426 69.7636 163.451 69.8124C163.489 70.0358 163.482 70.3855 163.549 70.6647C163.581 70.8141 163.65 70.953 163.748 71.0699C163.765 71.0902 163.786 71.1066 163.811 71.1181C163.835 71.1295 163.861 71.1357 163.887 71.1362C164.034 71.1362 164.069 71.0106 164.177 70.885C164.286 70.7593 164.328 70.7558 164.394 70.7663C164.461 70.7768 164.454 70.8326 164.443 70.9233L164.398 71.1502L164.286 71.5624L164.038 72.1494C164.027 72.1736 164.026 72.2012 164.034 72.2265C164.042 72.2518 164.06 72.2729 164.084 72.2855C164.096 72.2914 164.109 72.2948 164.122 72.2955C164.136 72.2962 164.149 72.2943 164.162 72.2897C164.175 72.2852 164.186 72.2781 164.196 72.269C164.206 72.2599 164.214 72.2489 164.22 72.2367L164.481 71.6814L164.628 71.2622L164.698 71.0005C164.736 70.6717 164.6 70.5181 164.422 70.4798ZM164.321 67.8147C164.302 67.7965 164.276 67.7864 164.249 67.7864C164.223 67.7864 164.197 67.7965 164.178 67.8147C164.098 67.8819 164.038 67.9701 164.005 68.0694C163.972 68.1688 163.968 68.2753 163.993 68.377C164.004 68.447 164.024 68.5145 164.052 68.5794C164.087 68.6645 164.129 68.7461 164.177 68.824C164.268 68.9811 164.387 69.1172 164.275 69.2921C164.257 69.3168 164.248 69.3477 164.252 69.3783C164.256 69.409 164.272 69.4369 164.296 69.4561C164.32 69.4749 164.35 69.4837 164.38 69.4804C164.41 69.4771 164.438 69.4621 164.457 69.4386C164.508 69.3885 164.548 69.3288 164.576 69.2629C164.604 69.1969 164.618 69.1262 164.618 69.0547C164.618 68.9256 164.59 68.7975 164.534 68.6809C164.492 68.5832 164.44 68.489 164.391 68.3982C164.31 68.2548 164.223 68.1183 164.335 67.9473C164.348 67.9268 164.353 67.9026 164.351 67.8786C164.348 67.8546 164.338 67.8321 164.321 67.8147ZM165.63 68.6251C165.584 68.5426 165.542 68.4574 165.505 68.37C165.463 68.2904 165.443 68.2015 165.445 68.1117C165.449 68.0039 165.47 67.8978 165.508 67.7972C165.515 67.7857 165.519 67.7728 165.52 67.7596C165.522 67.7463 165.521 67.7329 165.517 67.7201C165.513 67.7074 165.506 67.6956 165.498 67.6854C165.489 67.6753 165.478 67.667 165.466 67.6611C165.455 67.6545 165.442 67.6504 165.429 67.6489C165.415 67.6474 165.402 67.6487 165.389 67.6526C165.377 67.6566 165.365 67.6631 165.355 67.6717C165.344 67.6804 165.336 67.691 165.33 67.703C165.231 67.8327 165.162 67.983 165.128 68.1428C165.103 68.2579 165.103 68.377 165.128 68.4921C165.169 68.5996 165.22 68.7021 165.281 68.7996C165.336 68.8731 165.382 68.9511 165.421 69.0334C165.441 69.0794 165.449 69.1294 165.445 69.1793C165.442 69.2291 165.426 69.2773 165.4 69.32C165.384 69.3381 165.375 69.3607 165.372 69.3846C165.37 69.4085 165.375 69.4324 165.387 69.4532C165.399 69.474 165.418 69.4904 165.44 69.5003C165.461 69.5102 165.486 69.5131 165.509 69.5085C165.525 69.5054 165.54 69.4992 165.553 69.4902C165.566 69.4812 165.577 69.4696 165.585 69.4561C165.649 69.3907 165.696 69.3108 165.722 69.2233C165.748 69.1357 165.753 69.0432 165.735 68.9535C165.717 68.8395 165.681 68.7289 165.631 68.6251M166.609 67.6262C166.59 67.6073 166.564 67.5966 166.537 67.5966C166.51 67.5966 166.485 67.6073 166.466 67.6262C166.388 67.6854 166.327 67.7631 166.288 67.8522C166.249 67.9414 166.233 68.0389 166.242 68.1358C166.249 68.2454 166.277 68.3522 166.326 68.4502C166.378 68.5654 166.462 68.6736 166.518 68.7996C166.573 68.8778 166.61 68.9671 166.626 69.0614C166.63 69.0844 166.629 69.1081 166.622 69.1305C166.616 69.1529 166.604 69.1735 166.588 69.1905C166.571 69.2066 166.56 69.2272 166.555 69.2498C166.551 69.2724 166.553 69.2958 166.562 69.317C166.571 69.3383 166.586 69.3564 166.605 69.3691C166.624 69.3817 166.647 69.3883 166.67 69.388C166.7 69.388 166.73 69.3761 166.752 69.3549C166.799 69.3224 166.839 69.28 166.869 69.2306C166.898 69.1812 166.917 69.1259 166.923 69.0687C166.938 68.9242 166.919 68.7782 166.867 68.6426C166.816 68.5154 166.756 68.3917 166.689 68.2723C166.625 68.1923 166.582 68.0975 166.563 67.9965C166.557 67.9098 166.58 67.8236 166.63 67.7519C166.641 67.7317 166.645 67.7082 166.641 67.6853C166.638 67.6625 166.626 67.6416 166.609 67.6262Z" fill="black"/>
<path d="M67.3594 33.9802V29.2685C67.3594 29.027 67.4443 28.8211 67.6142 28.6508C67.784 28.4805 67.9899 28.3955 68.2319 28.396H69.4534C69.6952 28.396 69.9011 28.4809 70.0712 28.6508C70.2413 28.8206 70.3262 29.0265 70.326 29.2685V33.9802H67.3594ZM69.7082 32.4096H69.977V30.3156H69.7082C69.6459 30.3156 69.5946 30.3357 69.5543 30.3759C69.5141 30.4162 69.4939 30.4677 69.4939 30.5306V32.195C69.4939 32.2576 69.5141 32.309 69.5543 32.3493C69.5946 32.3895 69.646 32.4096 69.7086 32.4096M67.7084 33.6312H69.977V32.7586H69.7082C69.5523 32.7586 69.4195 32.7037 69.3097 32.5939C69.1998 32.4841 69.1449 32.351 69.1449 32.1946V30.5306C69.1449 30.3742 69.1998 30.2411 69.3097 30.1313C69.4195 30.0215 69.5523 29.9666 69.7082 29.9666H69.9766V29.2685C69.9766 29.125 69.9253 29.0018 69.8227 28.8989C69.7201 28.7961 69.597 28.7448 69.4534 28.745H68.2319C68.0883 28.745 67.9651 28.7963 67.8623 28.8989C67.7597 29.0018 67.7084 29.125 67.7084 29.2685V33.6312ZM71.7918 31.5633C71.6808 31.5633 71.5706 31.5497 71.461 31.5224C71.3514 31.4952 71.2425 31.4607 71.1343 31.4188L71.2449 31.0914C71.3433 31.1303 71.4392 31.1605 71.5325 31.1822C71.6258 31.2038 71.7152 31.2145 71.8005 31.2143C71.8883 31.2143 71.9748 31.2015 72.0602 31.1759C72.1458 31.1503 72.2331 31.1076 72.322 31.0478C72.4437 30.9624 72.5677 30.9033 72.694 30.8705C72.8201 30.8379 72.9382 30.8216 73.0483 30.8216C73.1579 30.8216 73.2695 30.8338 73.3833 30.8583C73.4973 30.8827 73.6078 30.9157 73.7149 30.9574L73.5973 31.298C73.4723 31.2561 73.3723 31.2244 73.2971 31.2028C73.222 31.1811 73.139 31.1704 73.0483 31.1706C72.9605 31.1706 72.8678 31.1848 72.7701 31.2132C72.6724 31.2416 72.568 31.2945 72.457 31.372C72.3528 31.4446 72.2448 31.4946 72.1332 31.5221C72.0215 31.5496 71.9077 31.5633 71.7918 31.5633ZM71.8005 30.3365C71.6896 30.3365 71.5774 30.3228 71.4641 30.2953C71.3508 30.2679 71.2407 30.2334 71.1339 30.192L71.2449 29.8577C71.3603 29.8995 71.4625 29.9315 71.5514 29.9536C71.6405 29.9762 71.7235 29.9875 71.8005 29.9875C71.8883 29.9875 71.9737 29.975 72.0567 29.9501C72.14 29.9253 72.2284 29.8822 72.322 29.821C72.4495 29.7354 72.5737 29.6763 72.6947 29.6437C72.8157 29.6111 72.9336 29.5949 73.0483 29.5949C73.1579 29.5949 73.2674 29.607 73.377 29.6312C73.4866 29.6556 73.5991 29.6886 73.7145 29.7303L73.5973 30.0713C73.4819 30.0324 73.3806 30.0015 73.2936 29.9784C73.2071 29.9551 73.1253 29.9435 73.0483 29.9435C72.9547 29.9435 72.8608 29.9575 72.7666 29.9854C72.6724 30.0133 72.567 30.0688 72.4504 30.1519C72.3636 30.214 72.2625 30.2603 72.1471 30.2908C72.0317 30.3213 71.9162 30.3364 71.8005 30.3362M71.8005 32.7904C71.6896 32.7904 71.5779 32.7767 71.4655 32.7492C71.3529 32.722 71.2424 32.6876 71.1339 32.6459L71.2449 32.3116C71.3459 32.3474 71.4439 32.378 71.5388 32.4034C71.6337 32.4287 71.721 32.4413 71.8005 32.441C71.8883 32.441 71.9738 32.4287 72.0571 32.404C72.1401 32.3792 72.2286 32.3361 72.3223 32.2749C72.4426 32.1907 72.5694 32.1319 72.7027 32.0987C72.8361 32.0654 72.9541 32.0486 73.057 32.0484C73.1622 32.0484 73.2714 32.061 73.3847 32.0861C73.498 32.1112 73.6081 32.1438 73.7149 32.1838L73.6039 32.5252C73.4885 32.4861 73.3848 32.455 73.2929 32.432C73.201 32.4089 73.1195 32.3975 73.0483 32.3978C72.9533 32.3978 72.8548 32.4141 72.7527 32.4466C72.6503 32.4797 72.5495 32.5327 72.4504 32.6058C72.3648 32.6665 72.2655 32.7125 72.1527 32.7436C72.0396 32.7746 71.9222 32.7904 71.8005 32.7904Z" fill="black"/>
</svg>
